<svg width="24" height="24" viewBox="0 0 24 24" fill="none" xmlns="http://www.w3.org/2000/svg">
  <path d="M21.3871 2L13.2624 8.4513L14.5235 4.9402L21.3871 2Z" fill="#E17726" stroke="#E17726" stroke-width="0.25" stroke-linecap="round" stroke-linejoin="round"/>
  <path d="M2.61292 2L10.6596 8.5193L9.47654 4.9402L2.61292 2Z" fill="#E27625" stroke="#E27625" stroke-width="0.25" stroke-linecap="round" stroke-linejoin="round"/>
  <path d="M18.4871 16.8854L16.384 20.4059L20.7543 21.7218L22.0154 16.9535L18.4871 16.8854Z" fill="#E27625" stroke="#E27625" stroke-width="0.25" stroke-linecap="round" stroke-linejoin="round"/>
  <path d="M1.99487 16.9535L3.24641 21.7218L7.60757 20.4059L5.51291 16.8854L1.99487 16.9535Z" fill="#E27625" stroke="#E27625" stroke-width="0.25" stroke-linecap="round" stroke-linejoin="round"/>
  <path d="M7.36908 11.3354L6.30469 13.4023L10.6167 13.6064L10.4618 8.95631L7.36908 11.3354Z" fill="#E27625" stroke="#E27625" stroke-width="0.25" stroke-linecap="round" stroke-linejoin="round"/>
  <path d="M16.631 11.3355L13.4903 8.88818L13.2624 13.6065L17.5744 13.4023L16.631 11.3355Z" fill="#E27625" stroke="#E27625" stroke-width="0.25" stroke-linecap="round" stroke-linejoin="round"/>
  <path d="M7.60757 20.4059L10.3069 18.9832L8.01377 17.0001L7.60757 20.4059Z" fill="#E27625" stroke="#E27625" stroke-width="0.25" stroke-linecap="round" stroke-linejoin="round"/>
  <path d="M13.6931 18.9832L16.384 20.4059L15.9862 17.0001L13.6931 18.9832Z" fill="#E27625" stroke="#E27625" stroke-width="0.25" stroke-linecap="round" stroke-linejoin="round"/>
  <path d="M16.384 20.4058L13.6931 18.9832L13.9211 20.8982L13.8931 21.6539L16.384 20.4058Z" fill="#D5BFB2" stroke="#D5BFB2" stroke-width="0.25" stroke-linecap="round" stroke-linejoin="round"/>
  <path d="M7.60754 20.4058L10.0984 21.6539L10.0705 20.8982L10.3069 18.9832L7.60754 20.4058Z" fill="#D5BFB2" stroke="#D5BFB2" stroke-width="0.25" stroke-linecap="round" stroke-linejoin="round"/>
  <path d="M10.1542 15.7732L7.94629 15.076L9.5004 14.2863L10.1542 15.7732Z" fill="#233447" stroke="#233447" stroke-width="0.25" stroke-linecap="round" stroke-linejoin="round"/>
  <path d="M13.8459 15.7732L14.4997 14.2863L16.0538 15.076L13.8459 15.7732Z" fill="#233447" stroke="#233447" stroke-width="0.25" stroke-linecap="round" stroke-linejoin="round"/>
  <path d="M7.60757 20.4059L8.03238 16.8853L5.51291 16.9534L7.60757 20.4059Z" fill="#CC6228" stroke="#CC6228" stroke-width="0.25" stroke-linecap="round" stroke-linejoin="round"/>
  <path d="M15.9678 16.8853L16.384 20.4059L18.4871 16.9534L15.9678 16.8853Z" fill="#CC6228" stroke="#CC6228" stroke-width="0.25" stroke-linecap="round" stroke-linejoin="round"/>
  <path d="M17.5744 13.4023L13.2624 13.6064L13.8459 15.7732L14.4997 14.2863L16.0538 15.076L17.5744 13.4023Z" fill="#CC6228" stroke="#CC6228" stroke-width="0.25" stroke-linecap="round" stroke-linejoin="round"/>
  <path d="M7.94629 15.076L9.5004 14.2863L10.1542 15.7732L10.6167 13.6064L6.30469 13.4023L7.94629 15.076Z" fill="#CC6228" stroke="#CC6228" stroke-width="0.25" stroke-linecap="round" stroke-linejoin="round"/>
  <path d="M6.30469 13.4023L8.01377 17.0001L7.94629 15.076L6.30469 13.4023Z" fill="#E27525" stroke="#E27525" stroke-width="0.25" stroke-linecap="round" stroke-linejoin="round"/>
  <path d="M16.0538 15.076L15.9862 17.0001L17.5744 13.4023L16.0538 15.076Z" fill="#E27525" stroke="#E27525" stroke-width="0.25" stroke-linecap="round" stroke-linejoin="round"/>
  <path d="M10.6166 13.6064L10.1542 15.7732L10.7376 18.152L10.9935 14.5996L10.6166 13.6064Z" fill="#E27525" stroke="#E27525" stroke-width="0.25" stroke-linecap="round" stroke-linejoin="round"/>
  <path d="M13.2624 13.6064L12.8855 14.5996L13.1414 18.152L13.8458 15.7732L13.2624 13.6064Z" fill="#E27525" stroke="#E27525" stroke-width="0.25" stroke-linecap="round" stroke-linejoin="round"/>
  <path d="M13.8459 15.7731L13.1415 18.152L13.6931 18.9831L15.9862 17.0001L16.0538 15.076L13.8459 15.7731Z" fill="#F5841F" stroke="#F5841F" stroke-width="0.25" stroke-linecap="round" stroke-linejoin="round"/>
  <path d="M7.94629 15.076L8.01377 17.0001L10.3069 18.9831L10.8585 18.152L10.1542 15.7731L7.94629 15.076Z" fill="#F5841F" stroke="#F5841F" stroke-width="0.25" stroke-linecap="round" stroke-linejoin="round"/>
  <path d="M13.8931 21.6539L13.9211 20.8982L13.7101 20.7193H10.2831L10.0705 20.8982L10.0984 21.6539L7.60754 20.4058L8.47856 21.1274L10.255 22.2666H13.7381L15.5145 21.1274L16.384 20.4058L13.8931 21.6539Z" fill="#C0AC9D" stroke="#C0AC9D" stroke-width="0.25" stroke-linecap="round" stroke-linejoin="round"/>
  <path d="M13.6931 18.9831L13.1415 18.152H10.8585L10.3069 18.9831L10.0705 20.8982L10.2831 20.7193H13.7101L13.9211 20.8982L13.6931 18.9831Z" fill="#161616" stroke="#161616" stroke-width="0.25" stroke-linecap="round" stroke-linejoin="round"/>
  <path d="M21.6873 8.57114L22.3411 5.40898L21.3872 2L13.6931 8.24748L16.631 11.3354L20.6275 12.6514L21.5153 11.6241L21.1384 11.3354L21.7642 10.758L21.3028 10.3734L21.9286 9.88056L21.6873 8.57114Z" fill="#763E1A" stroke="#763E1A" stroke-width="0.25" stroke-linecap="round" stroke-linejoin="round"/>
  <path d="M1.65894 5.40898L2.31278 8.57114L2.06368 9.88056L2.69804 10.3734L2.2274 10.758L2.86175 11.3354L2.47492 11.6241L3.37232 12.6514L7.36908 11.3354L10.307 8.24748L2.61292 2L1.65894 5.40898Z" fill="#763E1A" stroke="#763E1A" stroke-width="0.25" stroke-linecap="round" stroke-linejoin="round"/>
  <path d="M20.6275 12.6514L16.631 11.3354L17.5744 13.4023L15.9863 17.0001L18.4872 16.9534H22.0153L20.6275 12.6514Z" fill="#F5841F" stroke="#F5841F" stroke-width="0.25" stroke-linecap="round" stroke-linejoin="round"/>
  <path d="M7.36915 11.3354L3.37239 12.6514L1.99487 16.9534H5.51291L8.01377 17.0001L6.42563 13.4023L7.36915 11.3354Z" fill="#F5841F" stroke="#F5841F" stroke-width="0.25" stroke-linecap="round" stroke-linejoin="round"/>
  <path d="M13.2623 13.6064L13.6931 8.24748L14.5235 4.9402H9.47644L10.3069 8.24748L10.6166 13.6064L10.8025 14.5996L10.8305 18.152H13.1135L13.1414 14.5996L13.2623 13.6064Z" fill="#F5841F" stroke="#F5841F" stroke-width="0.25" stroke-linecap="round" stroke-linejoin="round"/>
</svg>