<svg width="24" height="24" viewBox="0 0 24 24" fill="none" xmlns="http://www.w3.org/2000/svg">
  <path d="M7.09 11.729C10.64 8.37 16.361 8.37 19.91 11.729L20.323 12.118C20.517 12.301 20.517 12.6 20.323 12.783L18.881 14.144C18.785 14.235 18.627 14.235 18.53 14.144L17.974 13.621C15.485 11.259 11.516 11.259 9.026 13.621L8.437 14.176C8.341 14.267 8.182 14.267 8.086 14.176L6.643 12.815C6.45 12.631 6.45 12.332 6.643 12.149L7.09 11.729Z" fill="#3B99FC"/>
  <path d="M15.855 13.663L17.125 14.858C17.222 14.949 17.222 15.1 17.125 15.191L13.007 19.068C12.911 19.159 12.753 19.159 12.657 19.068L8.54 15.191C8.444 15.1 8.444 14.949 8.54 14.858L9.811 13.663C9.908 13.572 10.066 13.572 10.162 13.663L12.657 15.986C12.753 16.077 12.911 16.077 13.007 15.986L15.502 13.663C15.599 13.572 15.758 13.572 15.855 13.663Z" fill="#3B99FC"/>
</svg>